<?xml version="1.0" encoding="utf-8"?>
<!-- Generator: Adobe Illustrator 27.9.0, SVG Export Plug-In . SVG Version: 6.00 Build 0)  -->
<svg version="1.1" id="Layer_1" xmlns="http://www.w3.org/2000/svg" xmlns:xlink="http://www.w3.org/1999/xlink" x="0px" y="0px"
	 viewBox="0 0 16 16" style="enable-background:new 0 0 16 16;" xml:space="preserve">
<style type="text/css">
	.st0{fill:#8CBF1F;}
</style>
<path class="st0" d="M5.1,1.2C5.2,1,5.5,0.9,5.8,1.1s0.3,0.4,0.2,0.7L3.4,6h9.2l-2.5-4.2C9.9,1.5,10,1.2,10.2,1.1s0.5-0.1,0.7,0.2
	L13.8,6h1.7C15.8,6,16,6.2,16,6.5v2C16,8.8,15.8,9,15.5,9H15v5c0,1.1-0.9,2-2,2H3c-1.1,0-2-0.9-2-2V9H0.5C0.2,9,0,8.8,0,8.5v-2
	C0,6.2,0.2,6,0.5,6h1.7L5.1,1.2z M3.5,10.5C3.5,10.2,3.3,10,3,10s-0.5,0.2-0.5,0.5v3C2.5,13.8,2.7,14,3,14s0.5-0.2,0.5-0.5V10.5z
	 M6,10.5C6,10.2,5.8,10,5.5,10S5,10.2,5,10.5v3C5,13.8,5.2,14,5.5,14S6,13.8,6,13.5V10.5z M8.5,10.5C8.5,10.2,8.3,10,8,10
	c-0.3,0-0.5,0.2-0.5,0.5v3C7.5,13.8,7.7,14,8,14c0.3,0,0.5-0.2,0.5-0.5V10.5z M11,10.5c0-0.3-0.2-0.5-0.5-0.5S10,10.2,10,10.5v3
	c0,0.3,0.2,0.5,0.5,0.5s0.5-0.2,0.5-0.5V10.5z M13.5,10.5c0-0.3-0.2-0.5-0.5-0.5s-0.5,0.2-0.5,0.5v3c0,0.3,0.2,0.5,0.5,0.5
	s0.5-0.2,0.5-0.5V10.5z"/>
</svg>
