<?xml version="1.0" encoding="utf-8"?>
<!-- Generator: Adobe Illustrator 27.9.0, SVG Export Plug-In . SVG Version: 6.00 Build 0)  -->
<svg version="1.1" id="Layer_1" xmlns="http://www.w3.org/2000/svg" xmlns:xlink="http://www.w3.org/1999/xlink" x="0px" y="0px"
	 viewBox="0 0 16 16" style="enable-background:new 0 0 16 16;" xml:space="preserve">
<style type="text/css">
	.st0{fill:#707070;}
</style>
<path class="st0" d="M5.8,1.1C6,1.2,6.1,1.5,5.9,1.8c0,0,0,0,0,0L3.4,6h9.2l-2.5-4.2C9.9,1.5,10,1.2,10.2,1.1s0.5-0.1,0.7,0.2
	L13.8,6H15c0.6,0,1,0.4,1,1v1c0,0.6-0.4,1-1,1v4.5c0,1.4-1.1,2.5-2.5,2.5h-9C2.1,16,1,14.9,1,13.5V9C0.4,9,0,8.6,0,8V7
	c0-0.6,0.4-1,1-1h1.2l2.9-4.8C5.2,1,5.5,0.9,5.8,1.1C5.8,1.1,5.8,1.1,5.8,1.1L5.8,1.1z M2,9v4.5C2,14.3,2.7,15,3.5,15h9
	c0.8,0,1.5-0.7,1.5-1.5V9H2z M1,7v1h14V7H1z M4,10c0.3,0,0.5,0.2,0.5,0.5v3C4.5,13.8,4.3,14,4,14s-0.5-0.2-0.5-0.5v-3
	C3.5,10.2,3.7,10,4,10 M6,10c0.3,0,0.5,0.2,0.5,0.5v3C6.5,13.8,6.3,14,6,14s-0.5-0.2-0.5-0.5v-3C5.5,10.2,5.7,10,6,10 M8,10
	c0.3,0,0.5,0.2,0.5,0.5v3C8.5,13.8,8.3,14,8,14c-0.3,0-0.5-0.2-0.5-0.5v-3C7.5,10.2,7.7,10,8,10 M10,10c0.3,0,0.5,0.2,0.5,0.5v3
	c0,0.3-0.2,0.5-0.5,0.5s-0.5-0.2-0.5-0.5v-3C9.5,10.2,9.7,10,10,10 M12,10c0.3,0,0.5,0.2,0.5,0.5v3c0,0.3-0.2,0.5-0.5,0.5
	s-0.5-0.2-0.5-0.5v-3C11.5,10.2,11.7,10,12,10"/>
</svg>
