<?xml version="1.0" encoding="utf-8"?>
<!-- Generator: Adobe Illustrator 27.9.0, SVG Export Plug-In . SVG Version: 6.00 Build 0)  -->
<svg version="1.1" id="Layer_1" xmlns="http://www.w3.org/2000/svg" xmlns:xlink="http://www.w3.org/1999/xlink" x="0px" y="0px"
	 viewBox="0 0 16 16" style="enable-background:new 0 0 16 16;" xml:space="preserve">
<style type="text/css">
	.st0{fill:#707070;}
</style>
<path class="st0" d="M4.5,12C4.2,12,4,11.8,4,11.5v-2C4,9.2,4.2,9,4.5,9h1C5.8,9,6,9.2,6,9.5v2C6,11.8,5.8,12,5.5,12H4.5z M7.5,12
	C7.2,12,7,11.8,7,11.5v-4C7,7.2,7.2,7,7.5,7h1C8.8,7,9,7.2,9,7.5v4C9,11.8,8.8,12,8.5,12H7.5z M10.5,12c-0.3,0-0.5-0.2-0.5-0.5v-6
	C10,5.2,10.2,5,10.5,5h1C11.8,5,12,5.2,12,5.5v6c0,0.3-0.2,0.5-0.5,0.5H10.5z"/>
<path class="st0" d="M4,0C2.9,0,2,0.9,2,2v12c0,1.1,0.9,2,2,2h8c1.1,0,2-0.9,2-2V2c0-1.1-0.9-2-2-2H4z M4,1h8c0.6,0,1,0.4,1,1v12
	c0,0.6-0.4,1-1,1H4c-0.6,0-1-0.4-1-1V2C3,1.4,3.4,1,4,1"/>
</svg>
