<?xml version="1.0" encoding="utf-8"?>
<!-- Generator: Adobe Illustrator 27.9.0, SVG Export Plug-In . SVG Version: 6.00 Build 0)  -->
<svg version="1.1" id="Layer_1" xmlns="http://www.w3.org/2000/svg" xmlns:xlink="http://www.w3.org/1999/xlink" x="0px" y="0px"
	 viewBox="0 0 64 64" style="enable-background:new 0 0 64 64;" xml:space="preserve">
<style type="text/css">
	.st0{fill:#E29375;}
	.st1{fill:#DBE4EB;}
	.st2{fill:#E7A990;}
	.st3{fill:#756D78;}
	.st4{fill:#F7F8FA;}
</style>
<g id="Puffer_Fish">
	<path id="path66503" class="st0" d="M28.8,4.5c-0.7,0.2-1.1,0.9-0.9,1.6l1.8,6.7c0.2,0.7,0.9,1.2,1.6,1c0.7-0.2,1.2-0.9,1-1.6
		c0,0,0-0.1,0-0.1l-1.8-6.7C30.2,4.8,29.5,4.3,28.8,4.5z"/>
	<path id="path66585" class="st1" d="M41,50.1c-0.7,0.2-1.1,0.9-1,1.6c0,0,0,0,0,0l1.8,6.7c0.2,0.7,0.9,1.1,1.6,0.9l0,0
		c0.7-0.2,1.1-0.9,0.9-1.6l-1.8-6.7C42.4,50.4,41.7,50,41,50.1z"/>
	<path id="path66838" class="st0" d="M22.9,7.2c-0.7-0.2-1.5,0.2-1.7,0.9c-0.1,0.4-0.1,0.8,0.2,1.2l3.5,6c0.4,0.6,1.2,0.9,1.8,0.5
		l0,0c0.6-0.4,0.9-1.2,0.5-1.8c0,0,0,0,0,0l-3.5-6C23.6,7.6,23.3,7.3,22.9,7.2z"/>
	<path id="path66840" class="st1" d="M46.5,48.1c-0.7-0.2-1.4,0.2-1.6,0.9c-0.1,0.3,0,0.7,0.1,1l3.5,6c0.4,0.6,1.2,0.9,1.8,0.5l0,0
		c0.6-0.4,0.9-1.2,0.5-1.8c0,0,0,0,0,0l-3.5-6C47.2,48.5,46.9,48.2,46.5,48.1z"/>
	<path id="path66842" class="st0" d="M16,11.9c-0.5,0.5-0.5,1.4,0,1.9c0,0,0,0,0,0l0,0l4.9,4.9c0.5,0.5,1.4,0.5,1.9,0
		c0.5-0.5,0.5-1.4,0-1.9l0,0l-4.9-4.9C17.4,11.4,16.5,11.4,16,11.9C16,11.9,16,11.9,16,11.9z"/>
	<path id="path66844" class="st1" d="M50.3,44.9c-0.4,0-0.7,0.1-0.9,0.4c-0.5,0.5-0.5,1.4,0,1.9l0,0l4.9,4.9c0.5,0.5,1.4,0.5,1.9,0
		c0,0,0,0,0,0l0,0c0.5-0.5,0.5-1.4,0-1.9c0,0,0,0,0,0l0,0l-4.9-4.9C51,45,50.7,44.9,50.3,44.9z"/>
	<path id="path66846" class="st0" d="M12.3,17.2c-0.7,0.2-1.1,0.9-1,1.6c0.1,0.3,0.3,0.6,0.6,0.8l6,3.5c0.7,0.3,1.5,0.1,1.8-0.6
		c0.3-0.6,0.1-1.4-0.5-1.7l0,0l-6-3.5C13,17.1,12.6,17.1,12.3,17.2z"/>
	<path id="path66848" class="st1" d="M54.2,40.9c-0.7-0.3-1.5-0.1-1.8,0.6c-0.3,0.6-0.1,1.4,0.5,1.7l0,0l6,3.5
		c0.6,0.4,1.4,0.2,1.8-0.4c0.4-0.6,0.2-1.4-0.4-1.8c0,0-0.1,0-0.1-0.1L54.2,40.9z"/>
	<path id="path66850" class="st0" d="M10.3,23.7c-0.7-0.2-1.4,0.3-1.6,1c-0.2,0.7,0.2,1.4,0.9,1.6l6.7,1.8c0.7,0.2,1.4-0.2,1.6-0.9
		c0,0,0,0,0,0l0,0c0.2-0.7-0.2-1.4-0.9-1.6l0,0L10.3,23.7z"/>
	<path id="path66852" class="st1" d="M55.9,35.9c-0.7-0.2-1.5,0.2-1.7,0.9s0.2,1.5,0.9,1.7c0,0,0.1,0,0.1,0l6.7,1.8
		c0.7,0.2,1.4-0.3,1.6-1c0.2-0.7-0.2-1.4-0.9-1.6L55.9,35.9z"/>
	<path id="path66854" class="st0" d="M20.9,45.3l-5,4.9c-0.5,0.5-0.5,1.3,0,1.8l0,0c0.5,0.5,1.4,0.5,1.9,0c0,0,0,0,0,0l4.9-4.9
		c0.5-0.5,0.5-1.4,0-1.9l0,0C22.2,44.8,21.4,44.8,20.9,45.3z"/>
	<path id="path66856" class="st0" d="M55.3,11.5c-0.4,0-0.7,0.1-0.9,0.4l-4.9,4.9c-0.5,0.5-0.5,1.4,0,1.9l0,0c0.5,0.5,1.4,0.5,1.9,0
		l0,0l4.9-4.9c0.5-0.5,0.5-1.4,0-1.9c0,0,0,0,0,0l0,0C56,11.6,55.6,11.5,55.3,11.5z"/>
	<path id="path66858" class="st0" d="M25.7,48.1c-0.3,0.1-0.6,0.3-0.8,0.6l-3.5,6c-0.4,0.6-0.2,1.4,0.4,1.8c0.6,0.4,1.4,0.2,1.8-0.4
		c0,0,0-0.1,0.1-0.1l3.5-6c0.4-0.6,0.1-1.5-0.5-1.8c0,0,0,0,0,0C26.4,48.1,26,48.1,25.7,48.1z"/>
	<path id="path66860" class="st0" d="M49.4,7.2c-0.3,0.1-0.6,0.3-0.8,0.6l-3.5,6c-0.3,0.7-0.1,1.5,0.6,1.8c0.6,0.3,1.4,0.1,1.7-0.5
		l0,0l3.4-6c0.4-0.6,0.2-1.4-0.4-1.9C50.1,7.2,49.7,7.1,49.4,7.2z"/>
	<path id="path66862" class="st1" d="M31.2,50.1c-0.7-0.2-1.4,0.2-1.6,0.9l-1.8,6.7c-0.2,0.7,0.3,1.4,1,1.6c0.7,0.2,1.4-0.2,1.6-0.9
		l1.8-6.7C32.4,51.1,32,50.3,31.2,50.1C31.2,50.1,31.2,50.1,31.2,50.1z"/>
	<path id="path66864" class="st0" d="M43.5,4.5c-0.7-0.2-1.4,0.2-1.6,0.9c0,0,0,0,0,0l0,0L40,12.2c-0.2,0.7,0.2,1.5,0.9,1.7
		c0.7,0.2,1.5-0.2,1.7-0.9c0,0,0-0.1,0-0.1l1.8-6.7C44.6,5.5,44.2,4.8,43.5,4.5C43.5,4.5,43.5,4.5,43.5,4.5z"/>
	<path id="path66866" class="st1" d="M36.1,50.8c-0.7,0-1.3,0.6-1.3,1.3v7c0,0.7,0.6,1.3,1.3,1.3c0.7,0,1.3-0.6,1.3-1.3v-7
		C37.4,51.4,36.8,50.8,36.1,50.8z"/>
	<path id="path66868" class="st0" d="M36.1,3.6c-0.7,0-1.3,0.6-1.3,1.3v7c0,0.7,0.6,1.3,1.3,1.3c0.7,0,1.3-0.6,1.3-1.3v-7
		C37.4,4.2,36.8,3.6,36.1,3.6z"/>
	<path id="path60099-6" class="st2" d="M61.8,28.4c1.7-0.5,2.6-2.3,2.1-4c-0.5-1.6-2.1-2.5-3.8-2.2c-1,0.2-2-0.2-2.4-1.1
		c-6-11.9-20.6-16.7-32.5-10.7C17.1,14.6,11.9,23,11.9,32.1c0,0.7-0.6,1.3-1.3,1.3l-8.5-0.6c-1.1-0.1-2,0.7-2.1,1.8
		c0,0.2,0,0.4,0.1,0.7l2.4,9.2c0.3,1.1,1.4,1.7,2.4,1.4c0.2-0.1,0.4-0.1,0.6-0.3l6.7-4.5c0.5-0.4,1.2-0.3,1.6,0.2
		c0.1,0.1,0.1,0.2,0.2,0.3c1.6,3.7,4.1,6.9,7.3,9.4L61.8,28.4z"/>
	<path id="path65809-7" class="st3" d="M44.6,20.4c0.4,1.4,1.8,2.3,3.3,1.9c1.4-0.4,2.3-1.8,1.9-3.3c-0.4-1.4-1.8-2.3-3.3-1.9
		c0,0,0,0-0.1,0C45.1,17.6,44.3,19,44.6,20.4z"/>
	<path id="path65097-9" class="st4" d="M61.8,28.4l-16.6,4.4l-8.7,2.5c-7,2.6-14.4,7.3-15.2,15.7c10.5,8.2,25.7,6.4,33.9-4.1
		c3.6-4.6,5.4-10.4,5.1-16.3C60.2,29.6,60.8,28.7,61.8,28.4z"/>
	<path id="path64640-9" class="st0" d="M34.8,32.7c0.7,2.8,3.6,4.5,6.4,3.7c0,0,0,0,0,0c1.7-0.4,3.5-2.9,4.7-4.7
		c0.8-1.2,0.4-2.8-0.8-3.6C45.1,28.1,45,28,45,28c-2-1-4.8-2.2-6.5-1.8C35.7,27,34,29.8,34.8,32.7C34.8,32.7,34.8,32.7,34.8,32.7z"
		/>
	<path id="path244918-6-3" class="st0" d="M37.9,17.5c-0.6,0.4-0.9,1.2-0.5,1.8c0,0,0,0,0,0l0,0c0.4,0.6,1.2,0.9,1.8,0.5
		c0,0,0,0,0,0l0,0c0.7-0.3,0.9-1.2,0.6-1.8C39.4,17.3,38.6,17.1,37.9,17.5C37.9,17.4,37.9,17.5,37.9,17.5L37.9,17.5z"/>
	<path id="path244918-6-1" class="st0" d="M29,21.5c-0.6,0.4-0.9,1.2-0.5,1.8l0,0c0.4,0.6,1.2,0.9,1.8,0.5c0,0,0,0,0,0l0,0
		c0.7-0.3,0.9-1.2,0.6-1.8S29.8,21.1,29,21.5C29.1,21.5,29,21.5,29,21.5z"/>
	<path id="path244918-6-27" class="st1" d="M45,45.9c-0.6,0.4-0.9,1.2-0.5,1.8l0,0c0.4,0.6,1.2,0.9,1.8,0.5c0,0,0,0,0,0l0,0
		c0.6-0.4,0.8-1.2,0.4-1.8C46.4,45.7,45.7,45.5,45,45.9z"/>
	<path id="path244918-6-0" class="st1" d="M51.3,36.8c-0.6,0.4-0.9,1.2-0.5,1.8c0,0,0,0,0,0l0,0c0.4,0.6,1.2,0.9,1.8,0.5
		c0,0,0,0,0,0l0,0c0.6-0.4,0.9-1.2,0.5-1.8c0,0,0,0,0,0C52.8,36.7,51.9,36.5,51.3,36.8C51.3,36.8,51.3,36.8,51.3,36.8z"/>
	<path id="path244918-6-93" class="st1" d="M32.5,43.9c-0.7,0.3-0.9,1.2-0.5,1.8c0,0,0,0,0,0l0,0c0.4,0.6,1.2,0.9,1.8,0.5
		c0,0,0,0,0,0l0,0c0.7-0.3,0.9-1.2,0.6-1.8S33.2,43.5,32.5,43.9C32.6,43.9,32.5,43.9,32.5,43.9L32.5,43.9z"/>
	<path id="path244918-6-5" class="st0" d="M20.4,19.2c-0.6,0.4-0.9,1.2-0.5,1.8c0,0,0,0,0,0l0,0c0.4,0.6,1.2,0.9,1.8,0.5
		c0,0,0,0,0,0l0,0c0.6-0.4,0.8-1.2,0.5-1.8C21.9,19,21.1,18.8,20.4,19.2C20.5,19.2,20.5,19.2,20.4,19.2z"/>
	<path id="path244918-6-6" class="st0" d="M28.2,30.4c-0.6,0.4-0.9,1.2-0.5,1.8c0,0,0,0,0,0l0,0c0.4,0.6,1.2,0.9,1.8,0.5
		c0,0,0,0,0,0l0,0c0.6-0.4,0.8-1.2,0.4-1.8C29.6,30.2,28.8,30,28.2,30.4z"/>
	<path id="path244918-6-2" class="st0" d="M18.4,36c-0.6,0.4-0.9,1.2-0.5,1.8c0,0,0,0,0,0l0,0c0.4,0.6,1.2,0.9,1.8,0.5c0,0,0,0,0,0
		l0,0c0.6-0.4,0.8-1.2,0.4-1.8C19.8,35.9,19,35.7,18.4,36z"/>
	<path id="path244918-6-9" class="st0" d="M30.9,11.8c-0.6,0.4-0.9,1.2-0.5,1.8l0,0c0.4,0.6,1.2,0.8,1.8,0.5l0,0
		c0.6-0.4,0.8-1.2,0.4-1.8C32.3,11.6,31.5,11.4,30.9,11.8L30.9,11.8z"/>
</g>
</svg>
