<?xml version="1.0" encoding="utf-8"?>
<!-- Generator: Adobe Illustrator 27.9.0, SVG Export Plug-In . SVG Version: 6.00 Build 0)  -->
<svg version="1.1" id="duotone" xmlns="http://www.w3.org/2000/svg" xmlns:xlink="http://www.w3.org/1999/xlink" x="0px" y="0px"
	 viewBox="0 0 64 64" style="enable-background:new 0 0 64 64;" xml:space="preserve">
<style type="text/css">
	.st0{fill:#FFBD4A;}
	.st1{fill:#363636;}
</style>
<path class="st0" d="M36.3,9.6v39.1c0,1.5,0.8,2.9,2.1,3.7l5.3,3l5.3-3c1.3-0.8,2.1-2.2,2.1-3.7V9.6l-7.5,4.3L36.3,9.6z"/>
<path class="st0" d="M12.8,18.1v30.6c0,1.5,0.8,2.9,2.1,3.7l5.3,3l5.3-3c1.3-0.8,2.1-2.2,2.1-3.7V18.1l-7.5,4.3L12.8,18.1z"/>
<path class="st1" d="M43.7,14.9c-0.6,0-1.1-0.5-1.1-1.1V7.5c0-0.6,0.5-1.1,1.1-1.1s1.1,0.5,1.1,1.1v6.4
	C44.8,14.5,44.3,14.9,43.7,14.9z"/>
<path class="st1" d="M20.3,64c-0.6,0-1.1-0.5-1.1-1.1v-7.5c0-0.6,0.5-1.1,1.1-1.1s1.1,0.5,1.1,1.1v7.5C21.3,63.5,20.9,64,20.3,64z"
	/>
<path class="st1" d="M43.7,64c-0.6,0-1.1-0.5-1.1-1.1v-7.5c0-0.6,0.5-1.1,1.1-1.1s1.1,0.5,1.1,1.1v7.5C44.8,63.5,44.3,64,43.7,64z"
	/>
<path class="st1" d="M20.3,23.5c-0.6,0-1.1-0.5-1.1-1.1v-5.3c0-0.6,0.5-1.1,1.1-1.1s1.1,0.5,1.1,1.1v5.3
	C21.3,23,20.9,23.5,20.3,23.5z"/>
<path class="st1" d="M43.7,56.5c-0.6,0-1.1-0.5-1.1-1.1V14.9c0-0.6,0.5-1.1,1.1-1.1s1.1,0.5,1.1,1.1v40.5
	C44.8,56.1,44.3,56.5,43.7,56.5z"/>
<path class="st1" d="M43.7,56.5c-0.2,0-0.4,0-0.5-0.1l-5.3-3c-1.7-1-2.7-2.7-2.7-4.6V4.3c0-0.6,0.5-1.1,1.1-1.1s1.1,0.5,1.1,1.1
	v44.5c0,1.1,0.6,2.2,1.6,2.8l4.8,2.7l4.8-2.7c1-0.6,1.6-1.6,1.6-2.8V4.3c0-0.6,0.5-1.1,1.1-1.1s1.1,0.5,1.1,1.1v44.5
	c0,1.9-1,3.7-2.7,4.6l-5.3,3C44.1,56.5,43.9,56.5,43.7,56.5z"/>
<path class="st1" d="M43.7,51.2c-0.6,0-1.1-0.5-1.1-1.1c0-1.9,1-3.7,2.7-4.6l3.2-1.8c1-0.6,1.6-1.6,1.6-2.8c0-0.6,0.5-1.1,1.1-1.1
	s1.1,0.5,1.1,1.1c0,1.9-1,3.7-2.7,4.6l-3.2,1.8c-1,0.6-1.6,1.6-1.6,2.8C44.8,50.7,44.3,51.2,43.7,51.2z"/>
<path class="st1" d="M43.7,51.2c-0.6,0-1.1-0.5-1.1-1.1c0-1.1-0.6-2.2-1.6-2.8l-3.2-1.8c-1.7-1-2.7-2.7-2.7-4.6
	c0-0.6,0.5-1.1,1.1-1.1s1.1,0.5,1.1,1.1c0,1.1,0.6,2.2,1.6,2.8l3.2,1.8c1.7,1,2.7,2.7,2.7,4.6C44.8,50.7,44.3,51.2,43.7,51.2z"/>
<path class="st1" d="M43.7,42.7c-0.6,0-1.1-0.5-1.1-1.1c0-1.9,1-3.7,2.7-4.6l3.2-1.8c1-0.6,1.6-1.6,1.6-2.8c0-0.6,0.5-1.1,1.1-1.1
	s1.1,0.5,1.1,1.1c0,1.9-1,3.7-2.7,4.6l-3.2,1.8c-1,0.6-1.6,1.6-1.6,2.8C44.8,42.2,44.3,42.7,43.7,42.7z"/>
<path class="st1" d="M43.7,42.7c-0.6,0-1.1-0.5-1.1-1.1c0-1.1-0.6-2.2-1.6-2.8L37.9,37c-1.7-1-2.7-2.7-2.7-4.6
	c0-0.6,0.5-1.1,1.1-1.1s1.1,0.5,1.1,1.1c0,1.1,0.6,2.2,1.6,2.8l3.2,1.8c1.7,1,2.7,2.7,2.7,4.6C44.8,42.2,44.3,42.7,43.7,42.7z"/>
<path class="st1" d="M43.7,34.1c-0.6,0-1.1-0.5-1.1-1.1c0-1.9,1-3.7,2.7-4.6l3.2-1.8c1-0.6,1.6-1.6,1.6-2.8c0-0.6,0.5-1.1,1.1-1.1
	s1.1,0.5,1.1,1.1c0,1.9-1,3.7-2.7,4.6l-3.2,1.8c-1,0.6-1.6,1.6-1.6,2.8C44.8,33.7,44.3,34.1,43.7,34.1z"/>
<path class="st1" d="M43.7,34.1c-0.6,0-1.1-0.5-1.1-1.1c0-1.1-0.6-2.2-1.6-2.8l-3.2-1.8c-1.7-1-2.7-2.7-2.7-4.6
	c0-0.6,0.5-1.1,1.1-1.1s1.1,0.5,1.1,1.1c0,1.1,0.6,2.2,1.6,2.8l3.2,1.8c1.7,1,2.7,2.7,2.7,4.6C44.8,33.7,44.3,34.1,43.7,34.1z"/>
<path class="st1" d="M43.7,25.6c-0.6,0-1.1-0.5-1.1-1.1c0-1.9,1-3.7,2.7-4.6l3.2-1.8c1-0.6,1.6-1.6,1.6-2.8c0-0.6,0.5-1.1,1.1-1.1
	s1.1,0.5,1.1,1.1c0,1.9-1,3.7-2.7,4.6l-3.2,1.8c-1,0.6-1.6,1.6-1.6,2.8C44.8,25.1,44.3,25.6,43.7,25.6z"/>
<path class="st1" d="M43.7,25.6c-0.6,0-1.1-0.5-1.1-1.1c0-1.1-0.6-2.2-1.6-2.8l-3.2-1.8c-1.7-1-2.7-2.7-2.7-4.6
	c0-0.6,0.5-1.1,1.1-1.1s1.1,0.5,1.1,1.1c0,1.1,0.6,2.2,1.6,2.8l3.2,1.8c1.7,1,2.7,2.7,2.7,4.6C44.8,25.1,44.3,25.6,43.7,25.6z"/>
<path class="st1" d="M43.7,17.1c-0.6,0-1.1-0.5-1.1-1.1c0-1.9,1-3.7,2.7-4.6l3.2-1.8c1-0.6,1.6-1.6,1.6-2.8c0-0.6,0.5-1.1,1.1-1.1
	s1.1,0.5,1.1,1.1c0,1.9-1,3.7-2.7,4.6l-3.2,1.8c-1,0.6-1.6,1.6-1.6,2.8C44.8,16.6,44.3,17.1,43.7,17.1z"/>
<path class="st1" d="M43.7,17.1c-0.6,0-1.1-0.5-1.1-1.1c0-1.1-0.6-2.2-1.6-2.8l-3.2-1.8c-1.7-1-2.7-2.7-2.7-4.6
	c0-0.6,0.5-1.1,1.1-1.1s1.1,0.5,1.1,1.1c0,1.1,0.6,2.2,1.6,2.8l3.2,1.8c1.7,1,2.7,2.7,2.7,4.6C44.8,16.6,44.3,17.1,43.7,17.1z"/>
<path class="st1" d="M20.3,56.5c-0.6,0-1.1-0.5-1.1-1.1V22.4c0-0.6,0.5-1.1,1.1-1.1s1.1,0.5,1.1,1.1v33.1
	C21.3,56.1,20.9,56.5,20.3,56.5z"/>
<path class="st1" d="M20.3,13.9c-0.6,0-1.1-0.5-1.1-1.1V9.6c0-0.6,0.5-1.1,1.1-1.1s1.1,0.5,1.1,1.1v3.2
	C21.3,13.4,20.9,13.9,20.3,13.9z"/>
<path class="st1" d="M20.3,56.5c-0.2,0-0.4,0-0.5-0.1l-5.3-3c-1.7-1-2.7-2.7-2.7-4.6V12.8c0-0.6,0.5-1.1,1.1-1.1
	c0.6,0,1.1,0.5,1.1,1.1v35.9c0,1.1,0.6,2.2,1.6,2.8l4.8,2.7l4.8-2.7c1-0.6,1.6-1.6,1.6-2.8V12.8c0-0.6,0.5-1.1,1.1-1.1
	s1.1,0.5,1.1,1.1v35.9c0,1.9-1,3.7-2.7,4.6l-5.3,3C20.6,56.5,20.5,56.5,20.3,56.5z"/>
<path class="st1" d="M20.3,51.2c-0.6,0-1.1-0.5-1.1-1.1c0-1.9,1-3.7,2.7-4.6l3.2-1.8c1-0.6,1.6-1.6,1.6-2.8c0-0.6,0.5-1.1,1.1-1.1
	s1.1,0.5,1.1,1.1c0,1.9-1,3.7-2.7,4.6l-3.2,1.8c-1,0.6-1.6,1.6-1.6,2.8C21.3,50.7,20.9,51.2,20.3,51.2z"/>
<path class="st1" d="M20.3,51.2c-0.6,0-1.1-0.5-1.1-1.1c0-1.1-0.6-2.2-1.6-2.8l-3.2-1.8c-1.7-1-2.7-2.7-2.7-4.6
	c0-0.6,0.5-1.1,1.1-1.1c0.6,0,1.1,0.5,1.1,1.1c0,1.1,0.6,2.2,1.6,2.8l3.2,1.8c1.7,1,2.7,2.7,2.7,4.6C21.3,50.7,20.9,51.2,20.3,51.2z
	"/>
<path class="st1" d="M20.3,42.7c-0.6,0-1.1-0.5-1.1-1.1c0-1.9,1-3.7,2.7-4.6l3.2-1.8c1-0.6,1.6-1.6,1.6-2.8c0-0.6,0.5-1.1,1.1-1.1
	s1.1,0.5,1.1,1.1c0,1.9-1,3.7-2.7,4.6l-3.2,1.8c-1,0.6-1.6,1.6-1.6,2.8C21.3,42.2,20.9,42.7,20.3,42.7z"/>
<path class="st1" d="M20.3,42.7c-0.6,0-1.1-0.5-1.1-1.1c0-1.1-0.6-2.2-1.6-2.8L14.4,37c-1.7-1-2.7-2.7-2.7-4.6
	c0-0.6,0.5-1.1,1.1-1.1c0.6,0,1.1,0.5,1.1,1.1c0,1.1,0.6,2.2,1.6,2.8l3.2,1.8c1.7,1,2.7,2.7,2.7,4.6C21.3,42.2,20.9,42.7,20.3,42.7z
	"/>
<path class="st1" d="M20.3,34.1c-0.6,0-1.1-0.5-1.1-1.1c0-1.9,1-3.7,2.7-4.6l3.2-1.8c1-0.6,1.6-1.6,1.6-2.8c0-0.6,0.5-1.1,1.1-1.1
	s1.1,0.5,1.1,1.1c0,1.9-1,3.7-2.7,4.6l-3.2,1.8c-1,0.6-1.6,1.6-1.6,2.8C21.3,33.7,20.9,34.1,20.3,34.1z"/>
<path class="st1" d="M20.3,34.1c-0.6,0-1.1-0.5-1.1-1.1c0-1.1-0.6-2.2-1.6-2.8l-3.2-1.8c-1.7-1-2.7-2.7-2.7-4.6
	c0-0.6,0.5-1.1,1.1-1.1c0.6,0,1.1,0.5,1.1,1.1c0,1.1,0.6,2.2,1.6,2.8l3.2,1.8c1.7,1,2.7,2.7,2.7,4.6C21.3,33.7,20.9,34.1,20.3,34.1z
	"/>
<path class="st1" d="M20.3,25.6c-0.6,0-1.1-0.5-1.1-1.1c0-1.9,1-3.7,2.7-4.6l3.2-1.8c1-0.6,1.6-1.6,1.6-2.8c0-0.6,0.5-1.1,1.1-1.1
	s1.1,0.5,1.1,1.1c0,1.9-1,3.7-2.7,4.6l-3.2,1.8c-1,0.6-1.6,1.6-1.6,2.8C21.3,25.1,20.9,25.6,20.3,25.6z"/>
<path class="st1" d="M20.3,25.6c-0.6,0-1.1-0.5-1.1-1.1c0-1.1-0.6-2.2-1.6-2.8l-3.2-1.8c-1.7-1-2.7-2.7-2.7-4.6
	c0-0.6,0.5-1.1,1.1-1.1c0.6,0,1.1,0.5,1.1,1.1c0,1.1,0.6,2.2,1.6,2.8l3.2,1.8c1.7,1,2.7,2.7,2.7,4.6C21.3,25.1,20.9,25.6,20.3,25.6z
	"/>
<path class="st1" d="M43.7,4.3c-0.6,0-1.1-0.5-1.1-1.1V1.1c0-0.6,0.5-1.1,1.1-1.1s1.1,0.5,1.1,1.1v2.1C44.8,3.8,44.3,4.3,43.7,4.3z"
	/>
</svg>
