<?xml version="1.0" encoding="utf-8"?>
<!-- Generator: Adobe Illustrator 27.9.0, SVG Export Plug-In . SVG Version: 6.00 Build 0)  -->
<svg version="1.1" id="Layer_1" xmlns="http://www.w3.org/2000/svg" xmlns:xlink="http://www.w3.org/1999/xlink" x="0px" y="0px"
	 viewBox="0 0 200 200" style="enable-background:new 0 0 200 200;" xml:space="preserve">
<style type="text/css">
	.st0{fill:#DD8A2C;}
	.st1{fill:#F8874D;}
	.st2{fill:#EEA33E;}
	.st3{fill:#F8A480;}
	.st4{fill:#DE902C;}
	.st5{fill:#F4B098;}
	.st6{fill:#FFFFFF;}
</style>
<path class="st0" d="M187.9,120c2.4-79.3-72.6-94.8-79.1-117.5c-2.4-8.5-94.7,48-96.8,118.2c-1.8,60.3,37,77.6,85.6,77.4
	S186.1,180.3,187.9,120z"/>
<path class="st1" d="M97.6,198.1c-21.4,0.1-40.8-3.2-55.8-12.1c6.4-24.1,33.1-24.2,56.5-24.3c23.4-0.1,49.3-0.2,55.2,24.2
	C138,194.7,118.6,198.1,97.6,198.1L97.6,198.1z"/>
<path class="st2" d="M108.8,2.5c-0.1-0.5-0.6-0.8-1.4-0.8C76.5,28.3,40.3,72.6,38.8,122.6c-1,33.9,7.7,56.7,22.9,71.6
	c11.7,2.9,23.8,4.2,35.9,4c48.6-0.2,88.4-17.9,90.3-78.1C190.3,40.8,115.3,25.3,108.8,2.5L108.8,2.5z"/>
<path class="st3" d="M98.3,161.8c-18.8,0.1-39.7,0.2-50.5,12.7c3.4,7.3,8.1,14,13.9,19.7c0.1,0,0.2,0,0.2,0
	c15.4,3.8,31.4,5,47.3,3.5c7.7-0.6,15.3-1.8,22.9-3.5c7-1.6,15.5-3.8,21.5-8.2C147.5,161.5,121.9,161.7,98.3,161.8L98.3,161.8z"/>
<path class="st4" d="M58.2,108.5c-1.5,49.4,17.6,76.4,47.2,89.4c44.9-2.1,80.7-21,82.4-77.9c2.3-77.9-70.2-94.2-78.7-116.3
	C83.1,31.2,59.5,68.1,58.2,108.5z"/>
<path class="st5" d="M68.5,163.8c8.3,16.2,21.1,27.2,37,34.2c9-0.3,17.9-1.6,26.6-3.7c7-1.7,15.5-3.8,21.5-8.3
	c-6-24.4-31.7-24.3-55.2-24.2C88.4,161.8,77.8,161.9,68.5,163.8L68.5,163.8z"/>
<path class="st6" d="M172.6,93.4c0-10.9-3.5-21.6-9.8-30.4c-0.8-1.3-2.5-1.7-3.7-0.9c-1.3,0.8-1.7,2.5-0.9,3.7
	c5.9,8.1,9,17.8,9,27.8C167.2,97,172.6,96.8,172.6,93.4z M172.6,108.9c0.2-0.4,0.3-0.9,0.3-1.3c0-0.2-0.1-0.4-0.1-0.7
	c-0.1-0.5-0.4-0.9-0.8-1.2l-0.2-0.2c-0.5-0.5-1.2-0.7-2-0.7c-0.4,0-0.7,0.1-1,0.3c-0.3,0.1-0.6,0.3-0.9,0.6l-0.4,0.6
	c-0.2,0.4-0.3,0.9-0.3,1.3c0,0.2,0.1,0.5,0.1,0.7c0.1,0.5,0.4,0.9,0.7,1.2l0.2,0.2c0.2,0.3,0.6,0.4,0.9,0.5c0.3,0.1,0.7,0.2,1,0.2
	c0.4,0,0.7-0.1,1-0.3c0.3-0.1,0.6-0.3,0.9-0.6C172.4,109.3,172.5,109.1,172.6,108.9L172.6,108.9z"/>
</svg>
